<?xml version="1.0" standalone="no"?>
<!DOCTYPE svg PUBLIC "-//W3C//DTD SVG 20010904//EN"
 "http://www.w3.org/TR/2001/REC-SVG-20010904/DTD/svg10.dtd">
<svg version="1.0" xmlns="http://www.w3.org/2000/svg"
 width="500.000000pt" height="500.000000pt" viewBox="0 0 500.000000 500.000000"
 preserveAspectRatio="xMidYMid meet">

<g transform="translate(0.000000,500.000000) scale(0.100000,-0.100000)"
fill="#000000" stroke="none">
<path d="M0 2500 l0 -2500 2500 0 2500 0 0 2500 0 2500 -2500 0 -2500 0 0
-2500z m2128 1483 c-2 -9 -16 -20 -31 -24 -58 -16 -57 -11 -57 -273 0 -175 3
-245 12 -254 15 -15 380 -17 409 -2 18 10 19 24 19 248 0 130 -5 244 -10 252
-5 8 -24 20 -42 26 -18 6 -34 18 -36 27 -3 15 15 17 182 17 176 0 186 -1 186
-19 0 -14 -10 -21 -35 -25 -19 -4 -39 -15 -45 -26 -6 -11 -10 -114 -10 -253
l0 -234 91 -5 c81 -5 100 -10 177 -48 64 -32 103 -60 154 -112 62 -63 68 -73
68 -110 l0 -41 -38 59 c-76 116 -185 186 -302 192 -36 2 -84 -1 -108 -7 l-42
-12 0 -268 c0 -291 -1 -284 57 -300 18 -5 28 -14 28 -27 0 -18 -9 -19 -180
-19 -171 0 -180 1 -180 19 0 14 10 22 31 28 53 14 55 20 52 219 l-3 184 -27
-45 c-113 -190 -105 -505 17 -695 63 -98 129 -153 225 -185 154 -52 326 17
430 172 l40 60 0 -41 c0 -38 -6 -47 -67 -109 -120 -119 -241 -167 -408 -160
-97 3 -107 6 -191 47 -157 78 -273 226 -319 406 -20 80 -20 268 1 349 26 100
89 210 166 288 l67 68 -182 -2 -182 -3 0 -270 0 -270 43 -14 c31 -9 42 -18 40
-30 -3 -14 -24 -16 -183 -16 -173 0 -180 1 -180 20 0 14 8 21 25 23 52 8 50
-14 50 583 l0 558 -22 15 c-12 9 -30 16 -40 16 -11 0 -18 8 -18 20 0 19 7 20
186 20 168 0 185 -2 182 -17z m-1728 -2193 l0 -90 125 0 125 0 0 90 c0 83 1
90 20 90 19 0 20 -7 20 -200 0 -193 -1 -200 -20 -200 -19 0 -20 7 -20 90 l0
90 -125 0 -125 0 0 -90 c0 -89 0 -90 -25 -90 l-25 0 0 200 0 200 25 0 c25 0
25 -1 25 -90z m671 -109 c49 -106 89 -195 89 -197 0 -2 -9 -4 -21 -4 -15 0
-27 14 -45 55 l-25 55 -110 0 -109 0 -25 -55 c-18 -41 -29 -55 -44 -55 -12 0
-21 2 -21 4 0 5 155 348 171 377 6 12 18 19 31 17 17 -2 40 -44 109 -197z
m329 49 c0 -207 -21 -250 -120 -250 -63 0 -121 40 -98 67 9 11 14 11 28 -2 29
-27 76 -38 102 -24 13 6 26 17 30 23 4 6 8 75 8 154 l0 142 -70 0 c-63 0 -70
2 -70 20 0 19 7 20 95 20 l95 0 0 -150z m170 -50 l0 -200 -25 0 -25 0 0 200 0
200 25 0 25 0 0 -200z m383 187 c41 -18 64 -44 50 -58 -7 -7 -21 -4 -44 10
-48 30 -135 29 -179 -1 -57 -39 -75 -72 -75 -138 0 -66 18 -99 75 -137 44 -31
131 -32 179 -2 39 23 65 12 40 -17 -38 -46 -160 -59 -227 -25 -120 62 -150
221 -59 320 51 55 167 78 240 48z m197 -167 l0 -180 110 0 c103 0 110 -1 110
-20 0 -19 -7 -20 -135 -20 l-135 0 0 200 0 200 25 0 25 0 0 -180z m578 147
c115 -76 115 -258 0 -334 -56 -38 -157 -44 -214 -15 -79 41 -114 97 -114 183
0 82 36 140 115 183 49 27 161 18 213 -17z m440 16 c-3 -15 -16 -19 -71 -21
l-67 -3 0 -179 0 -180 -25 0 -25 0 0 180 0 180 -70 0 c-63 0 -70 2 -70 20 0
19 7 20 166 20 152 0 165 -1 162 -17z m112 -73 l0 -90 120 0 120 0 0 90 c0 89
0 90 25 90 l25 0 0 -200 0 -200 -25 0 c-25 0 -25 1 -25 90 l0 90 -120 0 -120
0 0 -90 c0 -89 0 -90 -25 -90 l-25 0 0 200 0 200 25 0 c25 0 25 -1 25 -90z
m460 -110 c0 -193 -1 -200 -20 -200 -19 0 -20 7 -20 200 0 193 1 200 20 200
19 0 20 -7 20 -200z m290 43 l125 -157 3 157 c2 149 4 157 22 157 19 0 20 -8
20 -200 0 -184 -1 -200 -17 -199 -11 0 -69 65 -143 160 l-125 159 -3 -160 c-2
-152 -4 -160 -22 -160 -19 0 -20 8 -20 200 0 184 1 200 18 200 10 0 67 -62
142 -157z m577 136 c41 -20 54 -41 34 -54 -6 -3 -25 4 -43 15 -72 44 -178 20
-231 -51 -50 -68 -23 -185 52 -227 42 -24 120 -29 165 -12 25 9 26 14 26 80 0
63 2 70 20 70 18 0 20 -7 20 -80 l0 -81 -42 -19 c-57 -26 -147 -26 -196 -1
-77 40 -112 97 -112 182 0 82 37 142 115 182 44 24 139 22 192 -4z"/>
<path d="M911 1728 c-23 -51 -41 -96 -41 -100 0 -5 41 -8 91 -8 73 0 90 3 86
14 -25 65 -82 186 -87 186 -4 0 -26 -42 -49 -92z"/>
<path d="M2517 1818 c-43 -25 -77 -87 -77 -140 0 -50 39 -117 80 -139 51 -27
137 -26 181 4 99 66 88 239 -17 283 -50 21 -123 17 -167 -8z"/>
</g>
</svg>
