<?xml version="1.0" standalone="no"?>
<!DOCTYPE svg PUBLIC "-//W3C//DTD SVG 20010904//EN"
 "http://www.w3.org/TR/2001/REC-SVG-20010904/DTD/svg10.dtd">
<svg version="1.0" xmlns="http://www.w3.org/2000/svg"
 width="500.000000pt" height="500.000000pt" viewBox="0 0 500.000000 500.000000"
 preserveAspectRatio="xMidYMid meet">

<g transform="translate(0.000000,500.000000) scale(0.100000,-0.100000)"
fill="#000000" stroke="none">
<path d="M1760 3980 c0 -12 7 -20 18 -20 10 0 28 -7 40 -16 l22 -15 0 -558 c0
-597 2 -575 -50 -583 -17 -2 -25 -9 -25 -23 0 -19 7 -20 180 -20 159 0 180 2
183 16 2 12 -9 21 -40 30 l-43 14 0 270 0 270 182 3 182 2 -67 -68 c-77 -78
-140 -188 -166 -288 -21 -81 -21 -269 -1 -349 46 -180 162 -328 320 -406 l89
-44 130 0 131 0 89 43 c67 33 105 60 157 113 63 62 69 72 69 110 l0 41 -40
-60 c-104 -155 -276 -224 -430 -172 -114 38 -198 120 -259 251 -52 110 -64
177 -59 324 5 141 24 217 76 305 l27 45 3 -184 c3 -199 1 -205 -52 -219 -21
-6 -31 -14 -31 -28 0 -18 9 -19 180 -19 171 0 180 1 180 19 0 13 -10 22 -28
27 -58 16 -57 9 -57 300 l0 268 42 12 c24 6 72 9 108 7 117 -6 226 -76 302
-192 l38 -59 0 41 c0 37 -6 47 -68 110 -52 52 -90 80 -156 113 -79 39 -96 43
-177 47 l-89 4 0 235 c0 139 4 242 10 253 6 11 26 22 45 26 25 4 35 11 35 25
0 18 -10 19 -186 19 -167 0 -185 -2 -182 -17 2 -9 18 -21 36 -27 18 -6 37 -18
42 -26 5 -8 10 -119 10 -247 0 -197 -2 -234 -16 -247 -13 -13 -46 -16 -208
-16 -136 0 -195 3 -204 12 -18 18 -17 492 1 505 6 6 26 15 42 20 17 5 31 17
33 26 3 15 -14 17 -182 17 -179 0 -186 -1 -186 -20z"/>
<path d="M357 1873 c-4 -3 -7 -93 -7 -200 l0 -193 25 0 c25 0 25 1 25 90 l0
90 125 0 125 0 0 -90 c0 -83 1 -90 20 -90 19 0 20 7 20 200 0 193 -1 200 -20
200 -19 0 -20 -7 -20 -90 l0 -90 -125 0 -125 0 0 90 c0 81 -2 90 -18 90 -10 0
-22 -3 -25 -7z"/>
<path d="M937 1873 c-8 -13 -177 -384 -177 -389 0 -2 9 -4 21 -4 15 0 26 14
44 55 l25 55 109 0 110 0 25 -55 c18 -41 30 -55 45 -55 12 0 21 1 21 3 0 2
-40 90 -89 197 -69 152 -93 196 -109 198 -11 2 -22 0 -25 -5z m72 -151 c23
-51 41 -95 41 -97 0 -3 -40 -5 -90 -5 -49 0 -90 3 -90 8 0 18 86 200 92 194 3
-4 25 -49 47 -100z"/>
<path d="M1210 1860 c0 -18 7 -20 70 -20 l70 0 0 -142 c0 -79 -4 -148 -8 -154
-25 -38 -88 -40 -128 -3 -17 16 -23 17 -32 6 -23 -27 35 -67 98 -67 99 0 120
43 120 250 l0 150 -95 0 c-88 0 -95 -1 -95 -20z"/>
<path d="M1520 1680 c0 -193 1 -200 20 -200 19 0 20 7 20 200 0 193 -1 200
-20 200 -19 0 -20 -7 -20 -200z"/>
<path d="M1775 1861 c-152 -70 -154 -285 -3 -362 67 -34 189 -21 227 25 25 31
-2 40 -44 15 -45 -27 -116 -29 -162 -6 -122 63 -119 232 4 296 36 19 124 13
162 -10 39 -23 65 -12 40 17 -37 45 -153 58 -224 25z"/>
<path d="M2107 1873 c-4 -3 -7 -93 -7 -200 l0 -193 135 0 c128 0 135 1 135 20
0 19 -7 20 -110 20 l-110 0 0 180 c0 168 -1 180 -18 180 -10 0 -22 -3 -25 -7z"/>
<path d="M2510 1858 c-87 -45 -125 -129 -106 -233 9 -44 56 -100 109 -127 59
-29 159 -23 215 15 122 80 112 275 -17 344 -59 31 -140 31 -201 1z m191 -41
c69 -46 92 -160 46 -227 -69 -103 -232 -97 -287 11 -45 87 -8 192 80 231 8 4
40 7 71 7 42 1 64 -5 90 -22z"/>
<path d="M2840 1860 c0 -18 6 -20 70 -20 l70 0 0 -180 0 -180 25 0 25 0 0 180
0 179 68 3 c52 2 67 6 67 18 0 13 -26 15 -162 18 -158 2 -163 2 -163 -18z"/>
<path d="M3230 1680 c0 -193 1 -200 20 -200 18 0 20 7 20 74 0 111 -7 106 131
106 l119 0 0 -90 c0 -89 0 -90 25 -90 l25 0 0 201 0 200 -22 -3 c-22 -3 -23
-8 -26 -91 l-3 -88 -122 3 -122 3 -3 88 c-3 79 -5 87 -22 87 -19 0 -20 -8 -20
-200z"/>
<path d="M3700 1680 c0 -193 1 -200 20 -200 19 0 20 7 20 200 0 193 -1 200
-20 200 -19 0 -20 -7 -20 -200z"/>
<path d="M3870 1681 c0 -193 1 -201 20 -201 18 0 20 8 22 160 l3 160 125 -159
c74 -95 132 -160 143 -160 16 -1 17 15 17 199 0 193 -1 200 -20 200 -19 0 -20
-7 -20 -161 l0 -161 -126 158 c-71 91 -133 160 -145 162 -18 3 -19 -4 -19
-197z"/>
<path d="M4420 1864 c-97 -42 -147 -161 -109 -261 39 -103 184 -154 297 -103
l42 19 0 81 c0 73 -2 80 -20 80 -17 0 -19 -8 -22 -72 l-3 -73 -47 -11 c-54
-14 -121 -3 -155 25 -89 74 -81 215 17 270 50 28 133 28 178 1 18 -11 37 -18
43 -15 20 13 7 34 -34 54 -52 25 -136 27 -187 5z"/>
</g>
</svg>
